<svg xmlns="http://www.w3.org/2000/svg" viewBox="0 0 467.22 261.99"><defs><style>.cls-1{fill:#00c3e1;}</style></defs><g id="Layer_2" data-name="Layer 2"><g id="texto"><path class="cls-1" d="M297,57.16v89.39q0,20-5.95,33.93a44.45,44.45,0,0,1-18.44,21.37q-12.48,7.41-30.89,7.4t-32.57-7.54q-14.13-7.58-27.27-22.38A47,47,0,0,1,173,193.39a44.05,44.05,0,0,1-12.46,9.52,55.21,55.21,0,0,1-14,4.91,76,76,0,0,1-15,1.43q-16.61,0-29.3-5.88T77.33,184.48v13.76q0,4.29-.36,8.3c-1,11.28-4.06,20.8-9.24,28.49q-9.59,14.26-23.34,20.62a66.48,66.48,0,0,1-20.68,6L0,220.59c6.72-2.11,11.71-4.9,14.93-8.39s5.35-8.17,6.35-14.11,1.5-14.36,1.5-25.23V57.16H77.33v85.92q1.22,1.5,5.74,7.41a78,78,0,0,0,7.71,8.9A31.72,31.72,0,0,0,99,164.85a25.49,25.49,0,0,0,11.11,2.41q12.67,0,17.67-8.46c3.32-5.65,5-13.64,5-24V0h54.38V143.08a111,111,0,0,0,14.51,17.3q7.25,6.88,18.58,6.88,11.64,0,17-8.08t5.36-24.4V57.16Z"/></g><g id="punto"><path class="cls-1" d="M39.67,38.48a20.39,20.39,0,0,0,10.4,2.72,20.09,20.09,0,0,0,14.55-6,19.59,19.59,0,0,0,6.12-14.55A19.87,19.87,0,0,0,64.62,6.12,19.87,19.87,0,0,0,50.07,0,19.59,19.59,0,0,0,35.52,6.12a20.09,20.09,0,0,0-6,14.55,20.41,20.41,0,0,0,2.72,10.4A20,20,0,0,0,39.67,38.48Z"/></g><g id="punto-2" data-name="punto"><path class="cls-1" d="M217.19,220.79a19.59,19.59,0,0,0-14.55,6.12,20.58,20.58,0,0,0,29.1,29.1,19.58,19.58,0,0,0,6.11-14.55,20.88,20.88,0,0,0-20.66-20.67Z"/></g><g id="punto-3" data-name="punto"><path class="cls-1" d="M266.83,220.79a19.59,19.59,0,0,0-14.55,6.12,20.09,20.09,0,0,0-6,14.55,20.39,20.39,0,0,0,2.72,10.4,20,20,0,0,0,7.41,7.41A20.91,20.91,0,0,0,281.38,256a19.59,19.59,0,0,0,6.12-14.55,20.9,20.9,0,0,0-20.67-20.67Z"/></g><g id="logo"><path class="cls-1" d="M397.48,52.74a69.74,69.74,0,0,0-60.56,104.37l.14.25c.06.11.13.2.18.31l13.31,23.05L421.89,57.15A69.59,69.59,0,0,0,397.48,52.74Z"/></g><g id="logo-2" data-name="logo"><path class="cls-1" d="M457.88,87.61A69.69,69.69,0,0,0,444.5,71L365.86,207.22,397.48,262,457.7,157.67c.05-.11.12-.2.18-.31l.14-.25A69.74,69.74,0,0,0,457.88,87.61Z"/></g></g></svg>