<svg xmlns="http://www.w3.org/2000/svg" id="briefcase" width="27.774" height="27.828" viewBox="0 0 27.774 27.828">
    <defs>
        <style>
            .cls-1{fill:#00c3e1}
        </style>
    </defs>
    <g id="Group_110" transform="translate(11.979 12.183)">
        <ellipse id="Ellipse_33" cx="1.358" cy="1.354" class="cls-1" rx="1.358" ry="1.354" transform="translate(0 1.923) rotate(-45.04)"/>
    </g>
    <g id="Group_111" transform="translate(0 6.998)">
        <path id="Path_706" d="M21.765 149.831H7.01a6.517 6.517 0 0 1-6.51-6.51v-7.811A6.517 6.517 0 0 1 7.01 129h14.755a6.517 6.517 0 0 1 6.51 6.51v7.811a6.517 6.517 0 0 1-6.51 6.51zM7.01 131.17a4.345 4.345 0 0 0-4.34 4.34v7.811a4.345 4.345 0 0 0 4.34 4.34h14.755a4.345 4.345 0 0 0 4.34-4.34v-7.811a4.345 4.345 0 0 0-4.34-4.34z" class="cls-1" transform="translate(-0.5 -129)"/>
    </g>
    <g id="Group_112" transform="translate(5.316 13.507)">
        <path id="Path_707" d="M109.729 256h-5.316a5.92 5.92 0 0 1-5.913-5.913 1.085 1.085 0 1 1 2.17 0 3.747 3.747 0 0 0 3.743 3.743h5.316a3.747 3.747 0 0 0 3.743-3.743 1.085 1.085 0 0 1 2.17 0 5.92 5.92 0 0 1-5.913 5.913z" class="cls-1" transform="translate(-98.5 -249)"/>
    </g>
    <g id="Group_113" transform="translate(8.734)">
        <path id="Path_708" d="M170.722 4.828a1.085 1.085 0 0 1-1.085-1.085 1.575 1.575 0 0 0-1.573-1.573h-2.821a1.575 1.575 0 0 0-1.573 1.573 1.085 1.085 0 0 1-2.17 0A3.747 3.747 0 0 1 165.243 0h2.821a3.747 3.747 0 0 1 3.743 3.743 1.085 1.085 0 0 1-1.085 1.085z" class="cls-1" transform="translate(-161.5)"/>
    </g>
</svg>
