<svg xmlns="http://www.w3.org/2000/svg" width="29.969" height="29.885" viewBox="0 0 29.969 29.885">
  <defs>
    <style>
      .cls-1 {
        fill: #fff;
      }
    </style>
  </defs>
  <path id="calendar_3_" data-name="calendar (3)" class="cls-1" d="M10.595,29.885H7.024a7.022,7.022,0,0,1-7.024-7V13.308a7.022,7.022,0,0,1,7.024-7H22.945a7.022,7.022,0,0,1,7.024,7v3.5a1.171,1.171,0,0,1-2.341,0v-3.5a4.681,4.681,0,0,0-4.683-4.67H7.024a4.681,4.681,0,0,0-4.683,4.67v9.573a4.681,4.681,0,0,0,4.683,4.67h3.571a1.167,1.167,0,1,1,0,2.335ZM11.824,3.5A3.512,3.512,0,0,0,4.8,3.5a1.171,1.171,0,0,0,2.341,0,1.171,1.171,0,0,1,2.341,0,1.171,1.171,0,0,0,2.341,0Zm13.463,0a3.512,3.512,0,0,0-7.024,0,1.171,1.171,0,0,0,2.341,0,1.171,1.171,0,0,1,2.341,0,1.171,1.171,0,0,0,2.341,0Zm4.683,22.822V23.241a3.58,3.58,0,0,0-3.581-3.571H23.3a1.167,1.167,0,1,0,0,2.335h3.092a1.239,1.239,0,0,1,1.24,1.236v3.083a1.171,1.171,0,0,0,2.341,0ZM25.9,25.613A1.169,1.169,0,0,0,24.205,24a11.576,11.576,0,0,1-8.322,3.55h-.547a1.167,1.167,0,1,0,0,2.335h.547A13.931,13.931,0,0,0,25.9,25.613ZM7.668,11.791A1.459,1.459,0,1,0,9.131,13.25,1.461,1.461,0,0,0,7.668,11.791Zm5.034,0a1.459,1.459,0,1,0,1.463,1.459A1.461,1.461,0,0,0,12.7,11.791Zm5.034,0A1.459,1.459,0,1,0,19.2,13.25,1.461,1.461,0,0,0,17.736,11.791Zm5.034,0a1.459,1.459,0,1,0,1.463,1.459A1.461,1.461,0,0,0,22.77,11.791Zm-15.1,5.02A1.459,1.459,0,1,0,9.131,18.27,1.461,1.461,0,0,0,7.668,16.81Zm0,5.02a1.459,1.459,0,1,0,1.463,1.459A1.461,1.461,0,0,0,7.668,21.83ZM12.7,16.81a1.459,1.459,0,1,0,1.463,1.459A1.461,1.461,0,0,0,12.7,16.81Zm0,5.02a1.459,1.459,0,1,0,1.463,1.459A1.461,1.461,0,0,0,12.7,21.83Zm5.034-5.02A1.459,1.459,0,1,0,19.2,18.27,1.461,1.461,0,0,0,17.736,16.81Z" transform="translate(0)"/>
</svg>
