<svg xmlns="http://www.w3.org/2000/svg" viewBox="0 0 835.03 202.23"><defs><style>.cls-1{fill:#00c3e1;}</style></defs><g id="Layer_2" data-name="Layer 2"><g id="z"><polygon class="cls-1" points="768.24 163.42 831.57 53.69 688.68 53.69 688.68 92.5 755.47 92.5 692.14 202.22 812.63 202.22 835.03 163.42 768.24 163.42"/></g><g id="l"><rect class="cls-1" x="606.16" width="52.68" height="202.23"/></g><g id="e"><path class="cls-1" d="M543.69,56.26a82.22,82.22,0,0,0-35-7.82q-27.44,0-46.69,9.86T433.24,85.43q-9.57,17.29-9.56,39.17,0,22.2,9.56,39.7T462.05,192q19.26,10.18,46.69,10.19,25.38,0,41.81-4.87a160.81,160.81,0,0,0,27.93-10.87l-15.14-26.24q-23.36,8.58-43.51,8.57a45.21,45.21,0,0,1-27.13-8.6q-12-8.61-15-22.18H582.28V127.52q0-28-10.87-45.73T543.69,56.26Zm-67.48,55.79q0-14,8.09-22.68t21.22-8.67q13.28,0,20.36,8.52T533,112.05Z"/></g><g id="e-2" data-name="e"><path class="cls-1" d="M361.19,56.26a82.13,82.13,0,0,0-34.93-7.82q-27.45,0-46.7,9.86T250.74,85.43q-9.56,17.29-9.55,39.17,0,22.2,9.55,39.7T279.56,192q19.26,10.18,46.7,10.19,25.38,0,41.8-4.87A162,162,0,0,0,396,186.48l-15.15-26.24q-23.36,8.58-43.52,8.57a45.3,45.3,0,0,1-27.14-8.6q-11.94-8.61-15-22.18H399.79V127.52q0-28-10.87-45.73T361.19,56.26Zm-67.48,55.79q0-14,8.11-22.68t21.23-8.67q13.27,0,20.34,8.52t7.09,22.83Z"/></g><g id="i"><path class="cls-1" d="M203.58,17.65l-76,131.66,30.56,52.92,58.2-100.82c0-.1.12-.19.17-.29s.09-.16.14-.25a67.37,67.37,0,0,0-13.06-83.22Z"/></g><g id="i-2" data-name="i"><path class="cls-1" d="M125.79,33.71a67.29,67.29,0,0,0-12.93-16.06l-76,131.66,30.56,52.92,58.2-100.82c0-.1.12-.19.17-.29l.14-.25A67.36,67.36,0,0,0,125.79,33.71Z"/></g><g id="i-3" data-name="i"><path class="cls-1" d="M67.42,0A67.4,67.4,0,0,0,8.9,100.87l.13.25.18.29,12.86,22.28L91,4.27A67.4,67.4,0,0,0,67.42,0Z"/></g></g></svg>