<svg xmlns="http://www.w3.org/2000/svg" width="24" height="24" viewBox="0 0 24 24"><defs><style>.a{fill:#fff;opacity:0;}.b{fill:#00c3e1;}</style></defs><g transform="translate(-18 -261)"><rect class="a" width="24" height="24" transform="translate(18 261)"/><g transform="translate(18.494 210.558)"><g transform="translate(0.479 62.921)"><g transform="translate(0 0)"><path class="b" d="M16.758,269.683l-2.315-2.315a2.383,2.383,0,0,0-1.7-.7h-1.6a.479.479,0,1,0,0,.959h1.6a1.448,1.448,0,0,1,1.016.421l1.5,1.5H11.145a.479.479,0,0,0,0,.959h5.273a.48.48,0,0,0,.339-.819Z" transform="translate(-10.666 -266.667)"/></g></g><g transform="translate(0.959 67.715)"><g transform="translate(0 0)"><path class="b" d="M26.607,373.812a.48.48,0,0,0-.479.479v1.438a.48.48,0,0,1-.479.479H22.771a.48.48,0,0,1-.479-.479v-1.918a.479.479,0,1,0-.959,0v1.918a1.44,1.44,0,0,0,1.438,1.438h2.876a1.44,1.44,0,0,0,1.438-1.438v-1.438A.48.48,0,0,0,26.607,373.812Z" transform="translate(-21.333 -373.333)"/></g></g><g transform="translate(0 59.086)"><g transform="translate(0 0)"><path class="b" d="M20.836,182.347c-1.321-.691-4.287-1.013-9.33-1.013s-8.009.322-9.33,1.013C.67,183.134,0,184.447,0,186.607a17.078,17.078,0,0,0,.5,3.959.478.478,0,0,0,.463.356h4.2l1.816.908a.481.481,0,0,0,.215.051H15.82a.474.474,0,0,0,.214-.051l1.817-.908h4.2a.478.478,0,0,0,.463-.356,17.078,17.078,0,0,0,.5-3.959C23.012,184.447,22.341,183.134,20.836,182.347Zm.838,7.616H17.739a.475.475,0,0,0-.215.051l-1.817.908H7.3l-1.816-.908a.481.481,0,0,0-.215-.051H1.338a16.486,16.486,0,0,1-.38-3.356c0-1.805.481-2.794,1.66-3.411,1.149-.6,4.138-.9,8.887-.9s7.739.3,8.887.9c1.178.617,1.66,1.605,1.66,3.411A16.57,16.57,0,0,1,21.674,189.963Z" transform="translate(0 -181.334)"/></g></g><g transform="translate(16.3 62.921)"><g transform="translate(0 0)"><path class="b" d="M368.425,269.543h-4.116l1.5-1.5a1.45,1.45,0,0,1,1.017-.421h1.6a.479.479,0,0,0,0-.959h-1.6a2.383,2.383,0,0,0-1.7.7l-2.315,2.315a.48.48,0,0,0,.339.819h5.273a.479.479,0,0,0,0-.959Z" transform="translate(-362.672 -266.667)"/></g></g><g transform="translate(5.753 62.921)"><g transform="translate(0 0)"><path class="b" d="M139.457,266.943a.48.48,0,0,0-.434-.276H128.476a.479.479,0,0,0-.368.786l2.4,2.876a.48.48,0,0,0,.368.173h5.753a.48.48,0,0,0,.368-.173l2.4-2.876A.478.478,0,0,0,139.457,266.943Zm-3.057,2.6h-5.3l-1.6-1.918H138Z" transform="translate(-127.996 -266.667)"/></g></g><g transform="translate(1.918 53.333)"><g transform="translate(0 0)"><path class="b" d="M61.805,60.333c-.546-1.254-2.371-5.388-3.006-5.927-.791-.672-3.057-1.073-6.064-1.073h-.959c-3.007,0-5.273.4-6.064,1.072-.635.54-2.461,4.673-3.006,5.927a.48.48,0,0,0,.88.383,40.465,40.465,0,0,1,2.747-5.578c.369-.314,1.931-.845,5.442-.845h.959c3.511,0,5.073.531,5.44.843a40.289,40.289,0,0,1,2.749,5.58.48.48,0,0,0,.88-.382Z" transform="translate(-42.668 -53.333)"/></g></g><g transform="translate(16.3 67.715)"><g transform="translate(0 0)"><path class="b" d="M367.939,373.333a.48.48,0,0,0-.479.479v1.918a.48.48,0,0,1-.479.479H364.1a.48.48,0,0,1-.479-.479v-1.438a.479.479,0,0,0-.959,0v1.438a1.44,1.44,0,0,0,1.438,1.438h2.876a1.44,1.44,0,0,0,1.438-1.438v-1.918A.479.479,0,0,0,367.939,373.333Z" transform="translate(-362.665 -373.333)"/></g></g></g></g></svg>