<svg xmlns="http://www.w3.org/2000/svg" xmlns:xlink="http://www.w3.org/1999/xlink" width="61" height="61" viewBox="0 0 61 61"><defs><style>.a{fill:#00c3e1;}.b{fill:#fff;}.c{filter:url(#a);}</style><filter id="a" x="0" y="0" width="61" height="61" filterUnits="userSpaceOnUse"><feOffset dy="3" input="SourceAlpha"/><feGaussianBlur stdDeviation="3" result="b"/><feFlood flood-opacity="0.027"/><feComposite operator="in" in2="b"/><feComposite in="SourceGraphic"/></filter></defs><g transform="translate(-290 -540)"><g class="c" transform="matrix(1, 0, 0, 1, 290, 540)"><circle class="a" cx="21.5" cy="21.5" r="21.5" transform="translate(9 6)"/></g><g transform="translate(311.742 558.709)"><path class="b" d="M4.461,11.687a18.653,18.653,0,0,0,6.2,4.86,9.656,9.656,0,0,0,3.472,1.027c.084,0,.164.007.248.007a2.875,2.875,0,0,0,2.23-.958.08.08,0,0,0,.015-.018,9.387,9.387,0,0,1,.7-.729c.171-.164.346-.335.514-.51a1.759,1.759,0,0,0-.007-2.619l-2.19-2.19a1.772,1.772,0,0,0-1.282-.59,1.832,1.832,0,0,0-1.3.587l-1.3,1.3c-.12-.069-.244-.131-.361-.189a4.5,4.5,0,0,1-.4-.219,13.8,13.8,0,0,1-3.3-3A7.949,7.949,0,0,1,6.592,6.671c.342-.31.663-.634.973-.951.109-.113.222-.226.335-.339a1.868,1.868,0,0,0,.6-1.312,1.853,1.853,0,0,0-.6-1.312L6.815,1.672c-.128-.128-.248-.251-.372-.379-.24-.248-.492-.5-.74-.732A1.816,1.816,0,0,0,4.421,0a1.87,1.87,0,0,0-1.3.565L1.761,1.927A2.8,2.8,0,0,0,.927,3.72a6.743,6.743,0,0,0,.506,2.915A16.956,16.956,0,0,0,4.461,11.687ZM1.816,3.8A1.927,1.927,0,0,1,2.4,2.558L3.751,1.2a.981.981,0,0,1,.67-.31.931.931,0,0,1,.656.317c.244.226.474.463.721.714.124.128.251.255.379.386L7.263,3.4a.989.989,0,0,1,.342.681.989.989,0,0,1-.342.681c-.113.113-.226.23-.339.342-.339.342-.656.667-1.006.976L5.9,6.1a.712.712,0,0,0-.182.809c0,.011.007.018.011.029a8.574,8.574,0,0,0,1.279,2.08,14.569,14.569,0,0,0,3.512,3.2,5.215,5.215,0,0,0,.481.262,4.5,4.5,0,0,1,.4.219l.04.022a.762.762,0,0,0,.353.091.773.773,0,0,0,.543-.248L13.7,11.2a.964.964,0,0,1,.667-.324.915.915,0,0,1,.645.324l2.2,2.193a.879.879,0,0,1-.011,1.373c-.153.164-.313.321-.485.485a10.492,10.492,0,0,0-.761.791,2,2,0,0,1-1.563.663c-.062,0-.128,0-.189-.007a8.773,8.773,0,0,1-3.14-.94,17.72,17.72,0,0,1-5.906-4.627A16.23,16.23,0,0,1,2.275,6.336,5.876,5.876,0,0,1,1.816,3.8Z" transform="translate(-0.912 0)"/></g></g></svg>