<svg xmlns="http://www.w3.org/2000/svg" xmlns:xlink="http://www.w3.org/1999/xlink" width="61" height="61" viewBox="0 0 61 61"><defs><style>.a{fill:#00e193;}.b{fill:#fff;}.c{filter:url(#a);}</style><filter id="a" x="0" y="0" width="61" height="61" filterUnits="userSpaceOnUse"><feOffset dy="3" input="SourceAlpha"/><feGaussianBlur stdDeviation="3" result="b"/><feFlood flood-opacity="0.027"/><feComposite operator="in" in2="b"/><feComposite in="SourceGraphic"/></filter></defs><g transform="translate(-239 -540)"><g class="c" transform="matrix(1, 0, 0, 1, 239, 540)"><circle class="a" cx="21.5" cy="21.5" r="21.5" transform="translate(9 6)"/></g><g transform="translate(260.173 557.673)"><path class="b" d="M15.914,2.739A9.319,9.319,0,0,0,1.081,13.68l-1.065,4.3a.546.546,0,0,0,.662.662l4.3-1.065A9.318,9.318,0,0,0,15.914,2.739ZM9.327,17.56a8.2,8.2,0,0,1-4.011-1.046.547.547,0,0,0-.4-.054l-3.622.9.9-3.622a.546.546,0,0,0-.054-.4A8.231,8.231,0,1,1,9.327,17.56Zm0,0"/><path class="b" d="M118.086,112.295a4.7,4.7,0,0,0-1.222-.95,1.523,1.523,0,0,0-1.85.268c-.23.23-.545.682-.727.9a6.16,6.16,0,0,1-3.015-3.015c.221-.181.675-.5.9-.727a1.523,1.523,0,0,0,.268-1.85,4.7,4.7,0,0,0-.95-1.221,1.9,1.9,0,0,0-2.857.173c-.734.734-1.387,2.094-.335,4.407a11.793,11.793,0,0,0,2.12,3.078l0,0a11.787,11.787,0,0,0,3.078,2.12c1.546.7,3.2.87,4.407-.335A1.9,1.9,0,0,0,118.086,112.295Zm-.946,2.084c-.712.712-1.782.75-3.182.113a9.233,9.233,0,0,1-4.66-4.66c-.637-1.4-.6-2.47.113-3.182.415-.415.894-.6,1.3-.181l.008.008c.97.97.9,1.306.682,1.525-.194.194-.768.584-.954.77-.436.435-.354,1.11.241,2a9.4,9.4,0,0,0,1.046,1.274h0a9.4,9.4,0,0,0,1.274,1.046c.895.6,1.569.676,2,.241.186-.186.576-.76.77-.954.148-.148.294-.2.6-.056a3.97,3.97,0,0,1,.923.738l.008.008C117.743,113.488,117.555,113.963,117.14,114.378Zm0,0" transform="translate(-103.828 -101.309)"/></g></g></svg>