<svg xmlns="http://www.w3.org/2000/svg" width="27.827" height="27.851" viewBox="0 0 27.827 27.851">
    <path fill="#00c3e1" d="M3.493 8.6c-3.89.692-4.176 5.7-1.571 8.044a3.732 3.732 0 0 0 3.125.985A3.632 3.632 0 0 0 7.391 16.1c2.153-3.039.138-8.213-3.9-7.5zm2.122 6.246a1.477 1.477 0 0 1-.935.638c-.976.167-2-.871-2.243-2.266a2.355 2.355 0 0 1 .3-1.79 1.678 1.678 0 0 1 1.118-.684c1.094-.187 1.946.545 2.173 1.863a3.056 3.056 0 0 1-.418 2.239zM22.7 4.834c.256-2.545-1.21-4.568-3.489-4.811A3.783 3.783 0 0 0 16.4.84c-2.737 2.168-1.9 7.939 1.858 8.386 2.423.232 4.224-2.017 4.442-4.392zm-2.164-.221a3.139 3.139 0 0 1-1.024 2.1 1.4 1.4 0 0 1-1.015.346c-.965-.1-1.657-1.4-1.511-2.839.116-1.2.82-2.153 2-2.038 1.065.114 1.689 1.089 1.553 2.428zM12.028.842A3.791 3.791 0 0 0 9.216.023c-4.074.415-4.563 6.05-1.673 8.382a3.555 3.555 0 0 0 2.622.821c3.765-.447 4.6-6.215 1.862-8.385zM9.935 7.063a1.409 1.409 0 0 1-1.021-.348 3.138 3.138 0 0 1-1.025-2.1c-.137-1.34.489-2.315 1.557-2.429 2.654-.25 2.554 4.636.489 4.877zM27.3 10.115a3.861 3.861 0 0 0-2.528-1.572 4.068 4.068 0 0 0-4.684 3.638 5.2 5.2 0 0 0 .786 3.864 3.632 3.632 0 0 0 2.345 1.527 3.732 3.732 0 0 0 3.125-.985c1.7-1.461 2.318-4.645.956-6.472zm-1.472 3.046c-.223 1.3-1.126 2.284-2.035 2.283a1.236 1.236 0 0 1-.208-.018 1.477 1.477 0 0 1-.935-.638 3.055 3.055 0 0 1-.418-2.239c.228-1.318 1.079-2.05 2.173-1.863a1.678 1.678 0 0 1 1.118.684 2.355 2.355 0 0 1 .3 1.79zM14.243 27.845h-.005c-4.037.053-8.358-.118-8.37-4.274.178-3 4.121-11.783 8.321-11.824 4.182.032 8.138 8.849 8.321 11.824a3.9 3.9 0 0 1-.785 2.493c-1.638 1.92-4.462 1.727-7.481 1.781zm-.054-13.922c-1 0-2.547 1.584-3.947 4.036a17.153 17.153 0 0 0-2.2 5.612c0 1.795 1.547 2.1 6.2 2.1s6.094-.29 6.094-2.1a17.27 17.27 0 0 0-2.2-5.593c-.92-1.578-2.462-3.92-3.946-4.055z" transform="translate(-0.222 0)"/>
</svg>
