<svg xmlns="http://www.w3.org/2000/svg" width="20.001" height="20.004" viewBox="0 0 20.001 20.004">
    <path fill="#00c3e1" d="M19.258 5.511a.781.781 0 0 0 .781-.781v-.82A3.914 3.914 0 0 0 16.129 0S3.882 0 3.852.005a3.989 3.989 0 0 0-2.735 1.227A3.851 3.851 0 0 0 .04 4.045v11.269A4.7 4.7 0 0 0 4.728 20h11.4a3.914 3.914 0 0 0 3.909-3.909v-5.928a3.914 3.914 0 0 0-3.909-3.909H3.944A2.339 2.339 0 0 1 1.6 4.021a2.3 2.3 0 0 1 .645-1.711 2.418 2.418 0 0 1 1.741-.745h12.141a2.35 2.35 0 0 1 2.347 2.347v.82a.781.781 0 0 0 .781.781zM3.944 7.816h12.185a2.35 2.35 0 0 1 2.347 2.347v5.932a2.35 2.35 0 0 1-2.347 2.347H4.728A3.132 3.132 0 0 1 1.6 15.313V7.038a3.9 3.9 0 0 0 2.344.778zm12.97 5.313a.977.977 0 1 1-.977-.977.977.977 0 0 1 .977.977zm0-9.219a.781.781 0 0 0-.781-.781H3.944a.781.781 0 0 0 0 1.563h12.188a.781.781 0 0 0 .782-.783z" transform="translate(-.038)"/>
</svg>
